<svg width="555" height="555" viewBox="0 0 555 555" fill="none" xmlns="http://www.w3.org/2000/svg">
<path d="M483 216C483 329.775 390.755 422 277.009 422C163.263 422 71 329.775 71 216C71 102.225 163.227 10 277.009 10C390.791 10 483 102.225 483 216Z" fill="#E2F1FF"/>
<path d="M180.594 374.168H399.796V387.832H180.594V374.168Z" fill="#6AAED8"/>
<path d="M164.03 322.197L164 367.343C164 373.028 168.604 377.644 174.29 377.644L406.075 377.836C411.748 377.836 416.353 373.244 416.359 367.565L416.389 322.401C416.389 319.688 415.548 317.034 413.975 314.819C411.526 311.367 407.552 309.314 403.319 309.314L177.123 309.122C172.891 309.122 168.917 311.169 166.461 314.615C164.888 316.83 164.042 319.477 164.036 322.191L164.03 322.197Z" fill="#95D1F9"/>
<path d="M180.594 452.23H399.796V465.894H180.594V452.23Z" fill="#6AAED8"/>
<path d="M164.03 400.258L164 445.404C164 451.089 168.604 455.706 174.29 455.706L406.075 455.898C411.748 455.898 416.353 451.305 416.359 445.626L416.389 400.463C416.389 397.749 415.548 395.096 413.975 392.88C411.526 389.428 407.552 387.375 403.319 387.375L177.123 387.183C172.891 387.183 168.917 389.23 166.461 392.676C164.888 394.891 164.042 397.539 164.036 400.252L164.03 400.258Z" fill="#95D1F9"/>
<path d="M180.594 530.136H399.796V543.8H180.594V530.136Z" fill="#6AAED8"/>
<path d="M164.03 478.171L164 523.317C164 529.002 168.604 533.619 174.29 533.619L406.075 533.811C411.748 533.811 416.353 529.218 416.359 523.539L416.389 478.376C416.389 475.662 415.548 473.008 413.975 470.793C411.526 467.341 407.552 465.288 403.319 465.288L177.123 465.096C172.891 465.096 168.917 467.143 166.461 470.589C164.888 472.804 164.042 475.452 164.036 478.165L164.03 478.171Z" fill="#95D1F9"/>
<path d="M383.976 352.015C379.262 352.015 375.44 348.193 375.44 343.478C375.44 338.764 379.262 334.941 383.976 334.941C388.691 334.941 392.513 338.764 392.513 343.478C392.513 348.193 388.691 352.015 383.976 352.015Z" fill="white"/>
<path d="M356.235 352.015C351.52 352.015 347.698 348.193 347.698 343.478C347.698 338.764 351.52 334.941 356.235 334.941C360.949 334.941 364.771 338.764 364.771 343.478C364.771 348.193 360.949 352.015 356.235 352.015Z" fill="#C5FFE1"/>
<path d="M383.976 430.078C379.262 430.078 375.44 426.256 375.44 421.541C375.44 416.827 379.262 413.005 383.976 413.005C388.691 413.005 392.513 416.827 392.513 421.541C392.513 426.256 388.691 430.078 383.976 430.078Z" fill="white"/>
<path d="M356.235 430.078C351.52 430.078 347.698 426.256 347.698 421.541C347.698 416.827 351.52 413.005 356.235 413.005C360.949 413.005 364.771 416.827 364.771 421.541C364.771 426.256 360.949 430.078 356.235 430.078Z" fill="#C5FFE1"/>
<path d="M383.976 509.089C379.262 509.089 375.44 505.267 375.44 500.552C375.44 495.837 379.262 492.015 383.976 492.015C388.691 492.015 392.513 495.837 392.513 500.552C392.513 505.267 388.691 509.089 383.976 509.089Z" fill="white"/>
<path d="M356.235 509.089C351.52 509.089 347.698 505.267 347.698 500.552C347.698 495.837 351.52 492.015 356.235 492.015C360.949 492.015 364.771 495.837 364.771 500.552C364.771 505.267 360.949 509.089 356.235 509.089Z" fill="#C5FFE1"/>
<path d="M352.714 232.499H243.545V283.529C243.545 297.769 255.109 309.333 269.349 309.333H352.714V232.494V232.499Z" fill="#4680E1"/>
<path d="M282.818 64.1644L307.344 146.974L232.41 158.721L230.416 72.3788C230.1 58.9715 239.763 47.4082 253.015 45.3254C266.267 43.2482 279.008 51.3015 282.818 64.1589V64.1644Z" fill="black"/>
<path d="M225.456 259.413L315.38 245.318L330.704 265.606C333.525 266.667 336.463 266.945 339.257 266.506C344.6 265.667 349.404 262.257 351.831 257.042L360.301 238.969C366.815 225.007 366.082 208.734 358.312 195.421L330.454 147.696C325.211 138.72 317.146 131.711 307.533 127.774L286.894 119.309C284.467 118.304 261.64 108.407 259.03 108.818C256.436 109.223 236.697 125.791 234.692 127.496L217.636 141.87C209.683 148.562 204.157 157.704 201.924 167.851L189.994 221.813C189.972 221.952 189.939 222.102 189.9 222.257C185.401 243.618 203.901 262.801 225.456 259.425V259.413Z" fill="#FF7059"/>
<path d="M234.97 257.769C242.518 256.586 253.826 245.64 259.774 239.347C261.418 237.614 264.34 238.53 264.706 240.891L266.578 252.815L234.97 257.769Z" fill="#E55041"/>
<path d="M281.423 172.217C283.528 172.544 284.972 174.527 284.639 176.632L282.734 188.801C282.406 190.906 280.424 192.35 278.319 192.017C277.786 191.933 277.269 191.75 276.83 191.456L261.801 181.753C260.152 180.698 258.947 179.076 258.397 177.204L256.703 171.45C256.264 169.934 257.541 168.468 259.108 168.712L281.429 172.211" fill="#FFBD6E"/>
<path d="M246.133 158.298L261.629 155.871C264.795 155.377 267.777 157.532 268.277 160.714L273.781 195.804C274.275 198.97 272.104 201.953 268.938 202.452L253.442 204.879C250.277 205.374 247.294 203.202 246.794 200.036L241.29 164.947C240.79 161.764 242.968 158.798 246.133 158.298Z" fill="white"/>
<path d="M241.096 181.142L263.417 177.643C264.989 177.398 266.267 178.865 265.822 180.381L264.128 186.135C263.578 188.007 262.373 189.628 260.724 190.684L245.695 200.386C245.256 200.675 244.734 200.858 244.206 200.947C242.101 201.275 240.124 199.831 239.791 197.732L237.886 185.563C237.558 183.458 239.002 181.481 241.102 181.147" fill="#FFBD6E"/>
<path d="M244.706 132.206L255.131 146.69C260.346 153.922 271.56 152.156 274.303 143.686L279.785 126.713C280.468 124.63 280.485 122.397 279.869 120.287L268.111 80.465L241.674 84.6083L242.668 126.119C242.707 128.307 243.435 130.428 244.712 132.206H244.706Z" fill="#FFBD6E"/>
<path d="M274.237 78.854C274.465 75.966 276.975 73.8166 279.857 74.0388C282.74 74.2665 284.9 76.7824 284.673 79.6705C284.445 82.553 281.735 87.085 278.852 86.8573C275.97 86.6296 274.009 81.7365 274.237 78.8485V78.854Z" fill="#FFBD6E"/>
<path d="M228.767 75.2883C228.994 72.4002 231.516 70.2508 234.398 70.4786C237.281 70.7063 239.441 73.2222 239.214 76.1103C238.986 78.9928 236.275 83.5248 233.393 83.2971C230.51 83.0694 228.539 78.1708 228.767 75.2883Z" fill="#FFBD6E"/>
<path d="M253.993 112.317C266.111 113.267 276.819 104.481 278.263 92.4008L280.546 73.2563C282.101 60.0378 272.376 48.1746 259.108 47.1304C245.839 46.0919 234.37 56.2889 233.859 69.5907L233.126 88.8573C232.654 101.009 241.863 111.362 253.993 112.312V112.317Z" fill="#FFBD6E"/>
<path d="M242.401 115.677C243.234 116.049 244.073 116.36 244.94 116.627C248.111 117.599 251.543 117.871 255.031 117.327C258.963 116.71 262.501 115.127 265.434 112.839C266.372 112.111 265.506 110.617 264.406 111.056C262.873 111.656 261.274 112.1 259.58 112.361C253.187 113.367 246.972 111.584 242.218 107.902L242.401 115.672V115.677Z" fill="#E59A48"/>
<path d="M234.054 66.7969L233.387 75.3055C233.321 76.1497 233.954 76.8828 234.793 76.9495C235.209 76.9828 235.609 76.844 235.926 76.5774L249.205 64.8919C254.209 60.4931 261.851 61.0929 266.095 66.2192L277.414 79.832C277.675 80.143 278.063 80.343 278.463 80.3763C279.319 80.4429 280.041 79.8153 280.107 78.9711L280.74 70.9346C281.74 58.1605 272.537 46.6027 259.785 45.3141C253.137 44.6366 246.889 46.8082 242.202 50.8126C237.642 54.7059 234.57 60.3432 234.065 66.7969H234.054Z" fill="black"/>
<path d="M366.332 289.339C368.468 289.339 370.227 287.661 370.328 285.527L373.891 209.978C377.102 193.2 364.239 177.643 347.155 177.643C338.874 177.643 331.048 181.409 325.883 187.879L288.871 249.472L292.165 276.87L326.727 289.339" fill="#4680E1"/>
<path d="M204.023 419.529C207.256 426.61 175.787 445.155 179.269 452.797L247.861 421.517C244.14 413.364 235.287 405.272 235.287 405.272L204.023 419.529Z" fill="black"/>
<path d="M326.672 285.768V226.318C326.672 225.602 326.088 225.018 325.372 225.018C324.722 225.018 324.172 225.502 324.089 226.146L312.953 309.339L327.044 309.2L326.666 285.768H326.672Z" fill="#306DC6"/>
<path d="M361.095 289.338H326.733C326.733 299.341 324.655 299.341 324.655 309.338H374.863C374.863 301.457 361.089 296.786 361.089 289.338H361.095Z" fill="black"/>
<path d="M284.317 309.316L232.315 309.372L241.576 401.214C241.747 402.917 240.817 404.54 239.261 405.252L202.646 422.015C200.193 423.137 197.355 421.561 197.013 418.886L180.308 288.355C180.308 276.875 186.951 266.434 197.348 261.569C199.969 260.341 202.763 259.508 205.629 259.092L288.871 249.472L284.317 309.316Z" fill="#4680E1"/>
<path d="M222.941 263.091C204.88 263.091 190.239 248.45 190.239 230.389C190.239 212.328 204.88 197.687 222.941 197.687C241.001 197.687 255.642 212.328 255.642 230.389C255.642 248.45 241.001 263.091 222.941 263.091Z" fill="#FF7059"/>
<path d="M246.893 88.6066C246.893 90.5744 246.643 92.1681 245.888 92.1681C245.133 92.1681 244.883 90.5744 244.883 88.6066C244.883 86.6388 245.133 85.0452 245.888 85.0452C246.643 85.0452 246.893 86.6388 246.893 88.6066Z" fill="black"/>
<path d="M264.401 88.6066C264.401 90.5744 264.151 92.1681 263.396 92.1681C262.641 92.1681 262.391 90.5744 262.391 88.6066C262.391 86.6388 262.641 85.0452 263.396 85.0452C264.151 85.0452 264.401 86.6388 264.401 88.6066Z" fill="black"/>
<path d="M248.233 80.8521C248.569 80.5924 248.781 80.1909 248.776 79.7422C248.767 78.996 248.158 78.382 247.402 78.3867C247.255 78.3877 244.068 78.4293 241.139 80.8805C240.554 81.3669 240.478 82.2218 240.965 82.8169C241.451 83.3978 242.315 83.4734 242.901 82.9869C245.041 81.1875 247.391 81.1501 247.421 81.1497C247.723 81.145 248.002 81.0174 248.233 80.8521Z" fill="black"/>
<path d="M261.108 80.8521C260.773 80.5924 260.56 80.1909 260.565 79.7422C260.575 78.996 261.184 78.382 261.94 78.3867C262.087 78.3877 265.274 78.4293 268.202 80.8805C268.788 81.3669 268.863 82.2218 268.377 82.8169C267.89 83.3978 267.026 83.4734 266.44 82.9869C264.301 81.1875 261.95 81.1501 261.921 81.1497C261.618 81.145 261.34 81.0174 261.108 80.8521Z" fill="black"/>
<path d="M254.991 101.903C254.521 101.777 254.083 102.007 253.94 102.413C253.788 102.837 254.017 103.314 254.442 103.462C254.639 103.529 254.841 103.593 255.042 103.647C258.906 104.683 263.47 102.869 265.448 99.5216C265.557 99.3309 265.587 99.1092 265.533 98.894C265.478 98.6789 265.345 98.5014 265.151 98.3858C265.088 98.3447 265.021 98.3218 264.943 98.301C264.583 98.2044 264.203 98.3619 264.015 98.6829C262.4 101.424 258.65 102.903 255.461 102.048C255.301 102.005 255.137 101.961 254.983 101.896L254.981 101.905L254.991 101.903Z" fill="black"/>
</svg>
